<?xml version="1.0" standalone="no"?>
<!DOCTYPE svg PUBLIC "-//W3C//DTD SVG 20010904//EN"
 "http://www.w3.org/TR/2001/REC-SVG-20010904/DTD/svg10.dtd">
<svg version="1.0" xmlns="http://www.w3.org/2000/svg"
 width="1280.000000pt" height="1280.000000pt" viewBox="0 0 1280.000000 1280.000000"
 preserveAspectRatio="xMidYMid meet">
<metadata>
Created by potrace 1.14, written by Peter Selinger 2001-2017
</metadata>
<g transform="translate(0.000000,1280.000000) scale(0.100000,-0.100000)"
fill="#000000" stroke="none">
<path d="M6209 12796 c-2 -2 -44 -7 -94 -10 -49 -3 -106 -8 -125 -10 -19 -3
-62 -7 -95 -11 -33 -3 -71 -8 -85 -10 -40 -6 -122 -17 -155 -20 -16 -2 -43 -6
-60 -9 -16 -3 -48 -8 -70 -11 -22 -4 -76 -13 -120 -20 -44 -8 -96 -17 -115
-20 -79 -12 -101 -19 -240 -72 -80 -30 -158 -61 -175 -67 -16 -7 -46 -19 -65
-26 -19 -7 -48 -18 -65 -25 -16 -7 -75 -29 -130 -49 -55 -21 -109 -42 -120
-46 -11 -5 -108 -43 -215 -85 -157 -60 -189 -70 -165 -49 l30 25 -30 -6 c-16
-4 -41 -9 -55 -12 -24 -4 -142 -52 -260 -106 -30 -14 -84 -37 -120 -52 -95
-39 -370 -185 -404 -214 -10 -9 -21 -16 -25 -15 -3 1 -15 -4 -26 -11 -11 -7
-69 -43 -130 -80 -186 -114 -598 -404 -640 -451 -5 -6 -46 -40 -90 -75 -43
-35 -86 -71 -95 -79 -9 -8 -47 -42 -85 -75 -96 -84 -401 -388 -461 -459 -27
-32 -54 -64 -59 -70 -6 -6 -30 -36 -55 -66 -25 -30 -47 -57 -51 -60 -9 -8
-230 -289 -269 -343 -19 -27 -44 -60 -56 -75 -98 -126 -313 -454 -423 -646
-153 -265 -314 -625 -390 -871 -68 -222 -140 -490 -176 -655 -39 -178 -80
-389 -91 -470 -2 -14 -10 -70 -18 -125 -8 -55 -18 -122 -21 -150 -3 -27 -8
-68 -10 -90 -3 -22 -8 -67 -10 -100 -3 -33 -7 -78 -10 -100 -27 -233 -27
-1020 0 -1210 2 -16 7 -55 10 -85 6 -54 14 -120 20 -170 6 -51 16 -117 31
-195 8 -44 17 -96 20 -115 3 -19 9 -51 14 -70 5 -19 12 -51 15 -70 3 -19 22
-98 41 -175 20 -77 37 -147 39 -155 2 -8 4 -15 5 -15 1 0 4 -11 6 -25 10 -52
168 -547 193 -605 22 -49 71 -181 71 -190 0 -5 -30 50 -67 123 -36 73 -68 131
-70 129 -3 -4 111 -292 147 -372 10 -22 41 -92 70 -155 169 -378 397 -755 690
-1145 116 -154 264 -337 315 -391 11 -12 45 -50 75 -85 125 -147 479 -490 654
-634 27 -22 60 -50 75 -63 113 -100 578 -428 731 -515 235 -135 340 -191 490
-264 207 -102 200 -98 176 -79 -10 8 -71 45 -135 81 -64 36 -136 79 -161 95
-25 17 -52 33 -60 36 -56 26 -633 422 -735 506 -11 9 -76 61 -145 115 -69 55
-132 106 -140 114 -8 8 -31 27 -50 43 -37 30 -146 127 -238 211 -99 90 -305
298 -401 405 -52 58 -98 107 -101 110 -4 4 -140 164 -175 207 -5 7 -15 18 -21
25 -46 57 -211 279 -255 343 -30 44 -57 82 -61 83 -5 2 -8 8 -8 14 0 6 -15 31
-34 57 -87 121 -281 461 -386 677 -50 103 -127 276 -170 379 -82 196 -207 592
-245 775 -2 8 -13 56 -25 105 -38 158 -50 213 -56 252 -3 21 -7 40 -9 43 -2 3
-6 26 -9 50 -6 43 -9 60 -21 120 -3 14 -7 39 -10 55 -2 17 -9 64 -15 105 -6
41 -14 93 -16 115 -3 22 -7 55 -9 73 -2 18 -7 37 -10 42 -3 6 -2 10 4 10 5 0
12 -8 15 -17 2 -10 2 5 0 34 -17 172 -27 464 -28 748 0 276 6 435 29 675 3 30
7 80 10 110 3 30 9 80 15 110 5 30 12 73 15 94 3 21 7 48 10 60 2 12 7 37 9
56 3 19 10 60 16 90 6 30 13 66 16 80 3 14 14 62 24 107 11 46 22 93 24 105
35 158 107 391 129 413 19 20 19 20 15 -13 -6 -41 7 -52 15 -13 11 51 152 430
213 569 8 17 21 49 30 70 39 91 188 392 195 392 6 0 -22 -77 -67 -185 -6 -16
-19 -50 -27 -75 -8 -25 -25 -70 -37 -100 -12 -30 -23 -59 -25 -65 -1 -5 -5
-17 -8 -25 -19 -47 -206 -600 -212 -629 -3 -9 -23 -77 -45 -151 -49 -159 -119
-428 -127 -485 -3 -22 -9 -47 -14 -55 -6 -10 -7 -5 -4 15 8 51 34 276 39 340
l5 60 -14 -50 c-8 -27 -17 -59 -19 -70 -2 -11 -7 -27 -10 -35 -5 -13 -59 -287
-71 -364 -3 -17 -7 -42 -10 -56 -3 -14 -7 -40 -10 -57 -3 -18 -7 -48 -10 -65
-3 -18 -7 -44 -10 -58 -5 -29 -11 -73 -25 -195 -6 -49 -13 -106 -15 -125 -20
-141 -27 -667 -12 -815 7 -65 10 -97 22 -230 2 -27 7 -88 10 -135 3 -47 8
-101 10 -120 2 -19 6 -73 9 -120 l6 -85 -20 40 c-11 22 -18 31 -15 20 4 -19 9
-51 20 -132 6 -36 9 -56 20 -113 3 -14 7 -36 10 -50 8 -43 14 -74 20 -100 3
-14 7 -34 9 -45 2 -11 9 -38 15 -60 6 -22 12 -49 14 -60 2 -11 7 -33 12 -50
62 -239 120 -439 135 -467 6 -10 10 -23 10 -29 0 -6 30 -90 66 -187 69 -185
75 -201 118 -295 14 -32 26 -59 26 -62 0 -14 164 -347 237 -482 92 -170 240
-409 388 -626 310 -454 733 -930 1120 -1259 17 -14 52 -45 80 -68 120 -103
465 -350 593 -425 9 -6 60 -35 112 -66 120 -71 317 -174 350 -184 35 -10 492
-155 510 -162 8 -3 20 -7 25 -8 17 -4 217 -66 260 -81 82 -28 289 -84 329 -89
38 -5 36 -4 -19 15 -157 55 -434 159 -535 203 -14 6 -27 11 -30 12 -5 1 -45
19 -144 62 -101 44 -374 182 -464 234 -47 27 -87 49 -89 49 -10 0 -309 196
-420 275 -147 105 -415 346 -534 480 -43 48 -30 46 21 -5 14 -14 77 -68 140
-120 63 -52 117 -97 120 -100 39 -44 494 -355 658 -451 134 -79 293 -163 422
-225 85 -41 163 -79 172 -84 84 -47 489 -199 708 -267 146 -45 313 -91 390
-108 8 -2 42 -10 75 -18 33 -8 78 -18 100 -23 22 -4 45 -8 50 -10 29 -8 73
-17 204 -39 79 -13 147 -27 150 -31 3 -3 -7 -4 -24 -1 -16 4 -59 9 -95 13 -36
3 -74 8 -85 10 -11 2 -42 6 -70 9 -57 6 -104 12 -155 20 -19 3 -51 8 -70 10
-58 7 -172 26 -217 36 -46 10 -79 12 -71 4 3 -3 14 -8 24 -10 11 -3 89 -22
174 -44 85 -21 214 -49 285 -61 171 -28 161 -27 241 -35 38 -4 78 -9 89 -11
125 -23 925 -26 925 -3 0 3 -33 9 -72 13 -318 30 -1012 196 -1373 329 -308
114 -702 266 -770 297 -11 5 -85 37 -165 71 -202 85 -481 224 -634 314 -644
380 -1103 763 -1595 1330 -97 112 -411 532 -411 550 0 3 -15 27 -33 53 -37 53
-147 230 -147 236 0 2 -23 44 -51 93 -71 123 -267 523 -329 673 -29 69 -58
139 -65 155 -84 193 -256 742 -290 925 -3 14 -7 34 -9 45 -17 81 -46 226 -51
255 -16 103 -37 251 -41 295 -3 28 -7 64 -9 80 -26 190 -27 801 -1 1000 2 17
7 57 10 90 8 75 33 244 46 310 91 466 198 817 375 1230 57 133 282 585 300
603 7 8 -10 -47 -50 -153 -20 -55 -43 -118 -50 -140 -8 -22 -38 -112 -68 -200
-30 -88 -78 -234 -107 -325 -29 -91 -58 -184 -66 -207 -7 -23 -16 -52 -18 -65
-3 -13 -26 -95 -51 -183 -25 -88 -47 -169 -50 -180 -10 -46 -14 -63 -29 -120
-14 -55 -67 -314 -80 -395 -3 -19 -8 -46 -11 -60 -3 -14 -8 -52 -11 -85 -3
-33 -7 -62 -9 -65 -18 -29 -25 -462 -10 -570 13 -95 19 -101 45 -50 20 39 71
221 86 304 3 17 9 49 14 71 5 22 11 56 15 75 3 19 7 46 10 60 3 14 7 41 10 60
3 19 8 42 10 50 2 8 7 40 11 70 4 30 8 64 10 75 8 46 23 153 29 195 3 25 8 61
10 80 3 19 8 55 11 80 13 103 32 195 68 335 15 55 29 111 32 124 3 13 9 32 15
43 5 10 8 18 5 18 -2 0 9 44 26 98 16 53 34 112 40 130 22 75 155 402 224 550
19 41 34 76 34 78 0 3 42 89 94 192 158 316 306 561 465 770 47 62 103 136
123 165 21 29 45 60 53 70 8 9 15 19 15 22 0 3 8 13 18 23 9 10 37 43 61 73
60 72 310 321 391 389 36 30 67 58 70 61 3 3 70 55 150 115 185 139 409 288
632 419 484 286 1400 706 1722 790 136 36 338 79 416 90 25 3 56 8 70 10 14 2
45 7 70 10 25 3 56 8 70 10 14 2 54 7 90 10 36 3 81 8 100 10 289 33 1125 37
1250 5 19 -5 53 -12 75 -15 22 -4 45 -8 50 -9 6 -2 33 -7 60 -11 57 -10 64
-12 68 -15 1 -1 13 -3 27 -4 14 -2 113 -22 220 -45 107 -23 205 -44 217 -47
29 -6 222 -51 298 -70 33 -8 69 -16 80 -19 44 -9 175 -46 270 -75 55 -18 105
-33 110 -34 12 -3 47 -17 58 -23 4 -2 7 -2 7 1 0 7 -43 26 -175 76 -167 64
-202 76 -300 105 -49 15 -118 35 -153 45 -119 36 -537 132 -671 155 -130 21
-161 28 -158 32 3 2 31 0 63 -6 33 -6 75 -13 94 -16 146 -26 290 -54 510 -101
101 -22 108 -23 230 -54 503 -128 917 -268 1227 -416 118 -56 354 -188 380
-212 10 -9 14 -14 8 -11 -34 21 -286 136 -270 123 11 -8 20 -19 20 -24 0 -4 4
-12 9 -17 5 -5 6 -3 2 5 -11 18 0 15 50 -14 24 -14 42 -30 39 -34 -3 -5 0 -12
6 -16 8 -5 9 -3 4 6 -5 8 -3 11 6 8 8 -3 14 -10 14 -16 0 -6 7 -17 15 -24 12
-11 12 -11 0 6 -13 17 -13 18 0 13 8 -4 23 -10 33 -13 10 -4 16 -13 13 -20 -3
-7 0 -11 7 -8 15 6 276 -173 277 -190 0 -5 -8 -2 -17 6 -10 8 -25 18 -33 23
-8 4 -2 -4 15 -18 16 -14 34 -23 38 -20 11 7 77 -45 77 -61 0 -8 7 -17 16 -20
15 -6 15 -4 3 11 -11 14 -9 14 11 -2 36 -29 87 -79 73 -71 -25 14 -13 -2 15
-20 26 -17 27 -17 12 2 -14 19 -14 19 7 0 13 -10 20 -23 17 -28 -3 -4 0 -7 8
-6 7 2 12 -3 11 -9 -2 -7 0 -12 5 -12 19 3 33 -2 27 -11 -3 -5 6 -12 20 -16
13 -3 23 -9 20 -13 -2 -4 6 -14 18 -22 114 -76 600 -595 742 -793 11 -16 25
-33 31 -40 11 -12 128 -169 154 -206 8 -12 33 -47 56 -79 194 -268 430 -697
574 -1041 126 -300 250 -684 295 -911 2 -9 13 -59 24 -110 21 -99 54 -287 67
-379 4 -30 8 -62 10 -70 1 -8 5 -44 8 -80 4 -36 8 -81 11 -100 4 -33 14 -151
20 -250 2 -25 4 -76 4 -114 1 -38 4 -67 7 -64 5 6 12 127 17 315 2 91 11 110
16 36 2 -27 5 -61 6 -78 15 -166 18 -244 18 -460 0 -227 -6 -401 -17 -487 -3
-18 -8 -60 -11 -93 -7 -59 -12 -101 -20 -160 -17 -136 -56 -341 -97 -515 -48
-207 -90 -351 -180 -625 -69 -209 -261 -675 -340 -825 -42 -81 -49 -94 -90
-158 -16 -24 -28 -45 -28 -46 0 -8 -204 -313 -223 -334 -11 -12 -15 -22 -9
-22 7 0 12 5 12 12 0 6 3 9 6 5 11 -11 -343 -489 -439 -592 -11 -11 -31 -36
-45 -55 -52 -70 -204 -206 -362 -325 -36 -27 -70 -54 -76 -60 -6 -5 -26 -21
-44 -35 -19 -14 -63 -48 -99 -75 -228 -175 -544 -399 -669 -474 -479 -288
-904 -515 -1049 -561 -39 -13 -195 -72 -248 -95 -125 -54 -556 -168 -750 -198
-16 -3 -57 -10 -90 -15 -55 -10 -104 -17 -195 -28 -19 -2 -48 -6 -65 -8 -106
-16 -402 -40 -470 -39 l-40 0 30 -12 c17 -7 44 -16 60 -19 17 -3 48 -10 70
-15 22 -6 60 -13 85 -17 25 -3 65 -10 89 -14 24 -4 123 -6 220 -4 169 4 194 5
285 18 23 3 64 8 91 12 28 3 57 7 65 9 8 1 35 6 60 10 55 9 63 10 123 24 26 6
62 14 80 16 25 5 198 48 277 69 133 37 922 319 1065 380 17 8 86 37 155 66
294 123 592 287 671 369 14 15 73 65 130 111 57 47 109 89 115 95 6 5 35 30
65 55 146 123 471 444 588 580 36 41 70 80 75 85 23 21 177 216 266 335 357
479 718 1153 869 1620 70 218 145 478 166 580 2 8 10 45 19 83 9 37 18 82 21
100 3 17 8 39 10 47 2 8 7 29 10 45 2 17 7 41 10 55 3 14 8 41 11 60 2 19 9
58 14 85 6 28 12 69 15 93 7 55 14 117 20 167 25 198 30 294 30 585 0 257 -8
467 -19 502 -3 7 -7 39 -10 71 -7 73 -20 157 -51 327 -14 74 -30 162 -36 195
-6 33 -15 80 -20 105 -5 25 -11 57 -13 73 -3 15 -7 35 -10 45 -3 9 -7 34 -11
56 -3 21 -7 41 -10 45 -2 4 -6 18 -8 32 -3 13 -12 53 -21 89 -9 36 -18 74 -20
85 -10 46 -107 369 -126 420 -5 11 -13 36 -20 55 -7 19 -16 44 -20 55 -4 11
-18 47 -30 80 -12 33 -26 69 -30 80 -5 11 -32 76 -61 145 -51 122 -197 419
-260 530 -119 210 -229 381 -370 577 -51 70 -96 130 -99 133 -3 3 -21 25 -40
50 -19 25 -37 47 -40 50 -6 6 -102 121 -134 160 -22 28 35 -30 264 -270 280
-292 310 -325 322 -352 7 -16 16 -28 20 -28 5 0 8 -4 8 -9 0 -5 19 -42 43 -83
24 -40 72 -127 107 -193 35 -66 75 -136 88 -155 81 -119 228 -514 392 -1055
43 -141 83 -272 90 -300 5 -16 45 -156 89 -310 45 -154 83 -288 84 -297 2 -10
6 -20 10 -24 3 -4 4 4 2 17 -4 23 -7 40 -20 139 -3 25 -8 61 -11 80 -19 144
-113 571 -158 720 -7 25 -19 65 -26 90 -7 25 -15 52 -18 60 -3 8 -6 17 -7 20
-44 171 -203 578 -327 840 -39 81 -287 528 -352 633 -8 13 -8 20 0 25 8 5 -36
84 -127 230 -75 122 -135 222 -131 221 4 0 43 -40 87 -88 44 -49 82 -87 83
-85 3 2 -69 101 -141 194 -7 9 -32 42 -57 75 -46 62 -347 440 -386 485 -274
318 -577 634 -819 854 -454 413 -984 734 -1575 954 -126 46 -265 93 -335 113
-16 4 -79 22 -140 38 -60 17 -162 43 -225 56 -63 14 -126 29 -140 32 -14 3
-29 7 -35 9 -10 2 -312 53 -355 59 -130 20 -315 40 -460 50 -52 4 -111 9 -130
11 -44 5 -716 14 -721 10z m1048 -842 c-3 -3 -12 -4 -19 -1 -8 3 -5 6 6 6 11
1 17 -2 13 -5z m-6246 -2477 c-10 -9 -11 -8 -5 6 3 10 9 15 12 12 3 -3 0 -11
-7 -18z m-56 -116 c-25 -50 -45 -96 -45 -101 0 -6 -5 -10 -11 -10 -6 0 -8 -7
-5 -17 4 -10 4 -14 0 -11 -9 9 -28 -16 -94 -124 -29 -49 -55 -88 -57 -88 -4 0
51 103 67 125 4 6 34 60 65 120 32 61 64 117 72 126 7 8 13 19 13 23 0 10 32
57 37 53 2 -2 -17 -45 -42 -96z m-513 -4888 c14 -38 29 -77 33 -88 5 -11 9
-24 11 -30 24 -90 160 -461 177 -483 5 -7 7 -15 4 -19 -15 -14 -170 367 -202
497 -3 12 -20 67 -52 173 -3 9 -3 17 -1 17 3 0 16 -30 30 -67z m5238 -4393 c8
-5 11 -10 5 -10 -5 0 -17 5 -25 10 -8 5 -10 10 -5 10 6 0 17 -5 25 -10z"/>
<path d="M6387 11794 c-1 -1 -74 -4 -162 -8 -88 -4 -180 -9 -205 -12 -25 -3
-99 -12 -165 -20 -66 -7 -131 -16 -144 -19 -12 -2 -42 -6 -65 -9 -22 -3 -86
-15 -141 -26 -55 -12 -109 -23 -120 -25 -139 -29 -434 -111 -620 -173 -101
-34 -281 -99 -316 -115 -19 -8 -97 -40 -174 -72 -129 -53 -354 -161 -450 -215
-22 -12 -60 -34 -85 -48 -112 -63 -378 -232 -445 -282 -116 -87 -281 -244
-582 -553 -73 -74 -134 -130 -136 -124 -5 16 -110 -69 -197 -160 -190 -198
-572 -718 -745 -1014 -73 -126 -149 -266 -205 -377 -74 -149 -180 -392 -180
-414 0 -8 -4 -18 -9 -23 -4 -6 -24 -62 -44 -125 -20 -63 -49 -158 -66 -210
-29 -92 -95 -340 -105 -390 -3 -14 -14 -65 -25 -115 -17 -76 -52 -274 -66
-365 -2 -14 -7 -47 -11 -75 -4 -27 -8 -61 -9 -75 -1 -14 -5 -54 -9 -90 -32
-284 -38 -798 -12 -975 4 -28 40 -251 52 -320 12 -71 77 -379 104 -492 64
-264 195 -681 270 -858 5 -11 32 -76 60 -145 61 -147 150 -334 162 -338 4 -2
8 -8 8 -14 0 -6 21 -47 47 -92 25 -45 60 -106 77 -136 16 -30 59 -102 94 -160
36 -58 74 -121 85 -140 12 -19 24 -37 27 -40 3 -3 38 -53 78 -113 65 -97 208
-294 222 -307 3 -3 16 -18 29 -35 72 -95 179 -213 293 -327 48 -48 88 -90 88
-94 0 -4 -126 103 -160 136 -3 3 -19 16 -35 30 -78 65 60 -75 275 -280 127
-121 186 -171 355 -305 48 -37 205 -155 235 -175 12 -8 32 -22 44 -31 48 -36
218 -149 331 -220 247 -156 538 -307 776 -405 103 -42 386 -141 428 -149 14
-3 171 -48 256 -75 17 -5 41 -11 55 -14 14 -3 52 -12 85 -20 91 -21 246 -55
280 -61 223 -38 393 -62 505 -70 36 -3 83 -7 105 -10 72 -8 340 -17 335 -12
-3 3 -25 8 -50 11 -25 3 -103 15 -175 26 -71 12 -143 23 -160 26 -16 3 -37 7
-45 9 -8 2 -37 6 -64 10 -27 3 -52 8 -56 10 -3 2 -24 6 -46 9 -21 2 -88 14
-149 26 -60 12 -121 23 -135 26 -14 2 -45 9 -70 14 -25 5 -56 12 -70 14 -210
37 -657 163 -855 241 -346 137 -495 207 -730 341 -22 12 -53 30 -70 40 -165
93 -465 297 -755 513 -259 193 -338 256 -395 321 -27 30 -51 57 -54 60 -4 3
-31 34 -61 70 -30 36 -58 67 -61 70 -19 17 -263 329 -350 446 -135 183 -200
277 -276 397 -34 54 -66 104 -71 110 -17 22 -73 127 -68 127 2 0 21 -27 41
-61 21 -33 39 -58 42 -55 2 2 -31 66 -75 143 -172 298 -318 613 -432 931 -13
34 -25 61 -27 59 -6 -6 98 -294 143 -394 13 -31 22 -58 20 -61 -5 -5 -16 21
-82 186 -37 93 -104 287 -104 300 0 2 4 0 10 -3 6 -3 7 1 4 9 -3 9 -10 14 -14
11 -4 -3 -11 7 -14 23 -4 15 -9 36 -12 47 -4 16 -3 17 5 5 6 -8 11 -10 11 -5
0 6 -7 21 -16 33 -8 12 -12 27 -8 34 4 7 3 8 -4 4 -11 -6 -18 27 -13 57 0 4
-3 7 -7 7 -4 0 -9 14 -10 31 -1 17 -7 40 -13 50 -5 11 -8 19 -5 19 3 0 0 15
-5 33 -5 17 -19 73 -30 122 -11 50 -22 99 -24 110 -10 39 -64 371 -69 420 -8
81 -17 148 -21 173 -2 14 1 22 11 22 8 0 14 -4 14 -10 0 -5 4 -10 9 -10 5 0 8
10 6 23 -21 122 -27 848 -7 882 9 16 12 3 13 -75 0 -52 2 -106 4 -120 1 -14 5
-63 9 -110 4 -47 9 -96 11 -110 3 -30 14 -170 20 -255 12 -187 28 -361 41
-440 3 -16 7 -46 10 -65 2 -19 9 -60 14 -90 5 -30 12 -72 14 -93 3 -21 7 -41
10 -45 3 -5 8 -28 11 -53 3 -24 16 -86 29 -137 13 -51 19 -89 13 -83 -12 12
-69 196 -109 351 -40 156 -46 158 -23 10 1 -8 6 -33 10 -55 4 -22 9 -49 11
-60 19 -108 100 -437 138 -557 14 -43 22 -78 19 -78 -3 0 -1 -6 4 -12 5 -7 22
-51 37 -98 15 -47 31 -94 36 -105 4 -11 34 -85 66 -165 64 -162 176 -408 231
-509 70 -127 131 -236 181 -321 8 -12 9 -19 3 -16 -20 13 -12 -3 56 -106 170
-260 381 -544 473 -639 8 -9 42 -47 75 -85 57 -66 262 -272 376 -380 52 -49
274 -236 334 -282 17 -12 62 -46 100 -76 221 -168 553 -371 855 -521 326 -163
535 -246 905 -358 54 -17 242 -63 315 -77 25 -5 56 -12 70 -15 14 -3 50 -9 80
-15 30 -5 69 -12 85 -15 17 -3 53 -8 80 -11 28 -3 57 -7 65 -9 8 -3 40 -7 70
-10 30 -3 69 -8 85 -10 185 -24 430 -24 660 0 22 2 65 7 95 10 125 13 146 16
170 20 14 3 43 7 65 11 22 3 69 10 105 15 36 6 85 13 110 16 25 3 50 10 55 15
7 7 3 8 -10 5 -46 -13 -259 -21 -530 -21 -294 0 -395 4 -610 29 -125 14 -184
22 -290 41 -49 9 -103 18 -120 20 -108 17 -325 78 -420 118 -16 7 -46 19 -65
26 -19 7 -57 23 -85 35 -27 12 -60 26 -73 30 -13 4 -21 9 -18 12 2 3 47 -9 98
-25 119 -38 426 -116 544 -137 216 -39 350 -59 474 -70 41 -4 86 -9 100 -11
133 -22 715 -22 935 1 22 2 69 7 104 10 36 4 74 8 85 10 12 2 44 6 71 10 109
13 295 46 455 80 26 5 217 55 236 61 15 4 16 4 4 -4 -20 -13 -261 -83 -420
-122 -132 -33 -144 -36 -200 -47 -19 -4 -38 -8 -42 -9 -5 -1 -13 -2 -20 -3 -6
0 -9 -3 -6 -6 6 -6 75 4 273 40 107 20 124 23 143 29 9 3 31 8 47 10 44 8 190
51 260 76 73 27 141 66 149 85 3 8 12 15 20 15 13 0 202 68 281 101 17 7 32
13 35 13 19 5 228 91 226 93 -2 2 -37 -7 -77 -21 -72 -24 -202 -62 -247 -71
-12 -3 -59 -14 -105 -25 -84 -20 -235 -48 -297 -56 -19 -2 -50 -6 -68 -9 -17
-3 -49 -8 -70 -10 -20 -3 -53 -7 -72 -10 -42 -6 -154 -17 -307 -30 -162 -14
-380 -20 -718 -19 -444 0 -658 8 -805 30 -25 3 -63 8 -86 10 -42 3 -66 7 -169
25 -33 6 -69 12 -80 14 -44 5 -285 58 -375 82 -255 67 -567 174 -760 260 -115
52 -428 207 -442 220 -10 9 -18 12 -18 8 0 -4 -8 -1 -17 7 -10 8 -45 30 -77
47 -108 58 -326 203 -488 323 -68 51 -125 94 -128 98 -3 3 -30 25 -60 50 -30
25 -60 49 -66 55 -6 5 -38 33 -71 62 -388 338 -881 902 -1079 1236 -139 234
-300 568 -386 800 -40 110 -98 278 -103 297 -1 9 -14 54 -29 100 -45 150 -110
434 -130 565 -4 22 -11 65 -16 95 -5 30 -12 77 -16 105 -3 27 -8 59 -10 70
-23 134 -30 207 -28 300 1 103 12 267 19 306 2 10 6 42 9 71 8 71 13 110 26
193 6 39 13 86 16 105 9 65 14 43 14 -66 1 -168 12 -414 25 -539 3 -27 7 -74
10 -102 13 -141 16 -170 21 -193 2 -14 6 -45 9 -70 3 -25 8 -54 10 -65 2 -11
7 -42 10 -70 3 -27 10 -63 15 -80 5 -16 12 -50 15 -75 19 -125 124 -519 177
-660 11 -30 21 -59 23 -65 1 -5 6 -19 10 -30 4 -11 26 -65 48 -120 38 -97 111
-253 123 -264 6 -6 -3 138 -11 180 -3 13 -8 38 -11 54 -5 29 -41 200 -50 234
-35 146 -46 191 -69 276 -14 55 -28 111 -31 125 -3 14 -20 79 -38 145 -39 139
-55 225 -71 365 -3 25 -7 54 -9 65 -2 12 -7 45 -10 75 -4 30 -9 73 -11 95 -3
22 -8 105 -11 185 -3 80 -7 151 -9 158 -3 6 0 12 5 12 6 0 10 -19 11 -42 0
-24 2 -50 3 -58 2 -8 6 -55 10 -105 4 -49 9 -99 12 -110 2 -11 6 -38 8 -60 4
-37 17 -127 31 -215 3 -19 8 -51 11 -70 10 -69 16 -98 62 -270 25 -93 91 -320
99 -340 3 -8 7 -19 9 -25 1 -5 21 -64 44 -130 66 -189 137 -359 212 -507 72
-142 113 -208 82 -133 -9 22 -43 110 -76 195 -32 85 -62 162 -65 170 -3 8 -8
20 -9 25 -2 6 -35 101 -72 212 -38 111 -74 219 -80 240 -6 21 -18 63 -27 93
-56 188 -134 521 -149 637 -3 22 -7 52 -10 65 -10 44 -21 155 -31 293 -4 50
-8 119 -11 155 -6 84 -6 560 0 625 3 28 7 90 11 139 3 49 8 108 11 130 2 23 6
64 9 91 26 257 110 574 227 858 23 54 43 96 45 94 2 -3 -12 -47 -31 -98 -77
-207 -156 -502 -191 -704 -3 -16 -7 -41 -10 -55 -3 -14 -7 -41 -10 -60 -3 -19
-7 -44 -9 -55 -2 -11 -7 -49 -11 -85 -4 -36 -9 -78 -11 -95 -26 -235 -26 -729
1 -962 5 -48 14 -133 21 -198 2 -27 7 -61 10 -73 3 -13 7 -43 10 -65 8 -62 42
-231 65 -322 11 -44 22 -88 24 -97 37 -172 158 -506 265 -734 28 -59 50 -108
50 -110 0 -15 236 -374 259 -394 3 -3 45 -57 93 -120 48 -63 97 -127 110 -141
13 -15 34 -40 47 -55 40 -48 16 0 -38 75 -295 413 -613 1134 -655 1486 -4 28
-8 61 -11 75 -11 58 -15 123 -8 116 5 -4 8 -11 8 -14 4 -48 72 -301 126 -462
90 -272 233 -597 361 -819 26 -46 48 -85 48 -87 0 -10 172 -273 238 -364 136
-188 293 -378 412 -498 29 -29 50 -55 48 -57 -4 -4 -263 252 -352 348 -46 49
-58 48 -15 -1 19 -21 45 -52 58 -68 183 -223 393 -423 463 -442 20 -5 257
-188 288 -222 3 -3 35 -29 71 -57 52 -40 32 -17 -86 100 -83 84 -187 195 -230
247 -42 52 -85 104 -94 115 -99 119 -327 458 -479 712 -160 265 -402 710 -402
737 0 3 -11 29 -24 58 -79 171 -217 592 -243 738 -2 14 -10 50 -18 80 -7 30
-16 71 -19 90 -3 19 -8 45 -10 56 -2 12 -7 39 -11 60 -3 22 -7 50 -10 64 -10
65 -24 182 -30 245 -3 39 -8 93 -10 120 -22 239 -22 663 0 773 2 10 6 43 10
73 12 99 37 248 49 287 3 9 8 33 11 52 21 123 122 487 195 700 44 131 120 340
139 385 5 11 23 58 41 105 53 137 197 384 351 601 58 82 221 291 253 325 6 6
40 44 76 85 138 156 309 315 605 564 22 18 49 42 60 52 46 42 270 183 290 183
2 0 37 16 77 36 78 38 288 125 378 155 55 19 55 19 30 -1 -14 -11 -28 -20 -32
-20 -13 0 -355 -223 -503 -328 -298 -210 -431 -321 -665 -553 -102 -101 -194
-195 -204 -208 -18 -24 -141 -175 -174 -216 -41 -49 -54 -77 -41 -85 10 -7 55
16 79 40 3 3 30 24 60 46 30 23 134 120 230 215 170 169 268 261 385 364 130
114 131 115 206 165 35 24 66 46 69 49 3 3 34 26 70 50 36 24 106 71 155 105
263 179 549 310 1030 473 271 92 334 111 410 123 33 6 71 12 85 14 37 7 105
14 200 23 162 14 732 7 880 -12 74 -9 186 -25 205 -29 19 -3 70 -12 140 -22
17 -3 89 -16 160 -29 72 -14 141 -27 155 -30 14 -2 45 -9 70 -15 25 -5 56 -12
70 -14 91 -18 349 -77 365 -85 11 -5 81 -32 155 -61 201 -78 525 -237 695
-343 56 -35 251 -162 255 -167 3 -3 37 -28 75 -55 39 -27 72 -51 75 -55 3 -3
25 -21 50 -40 169 -129 348 -308 571 -570 35 -41 66 -77 69 -80 3 -3 25 -30
50 -60 25 -30 47 -57 50 -60 3 -3 17 -21 31 -40 24 -31 41 -53 79 -98 30 -34
144 -210 180 -276 23 -42 43 -76 45 -76 6 0 -39 94 -58 123 -9 15 -17 29 -17
33 0 10 -160 255 -212 324 -50 67 -153 198 -177 225 -17 19 -19 24 -6 15 11
-8 25 -22 31 -30 7 -8 22 -27 35 -41 34 -37 137 -160 194 -233 17 -22 35 -44
40 -50 6 -6 30 -38 55 -71 25 -33 48 -62 51 -65 15 -13 174 -247 234 -345 67
-107 197 -365 210 -415 4 -14 -24 29 -62 96 -37 67 -76 132 -86 145 l-18 24
15 -30 c41 -84 125 -300 141 -365 2 -6 14 -37 25 -65 12 -31 59 -195 91 -324
17 -64 34 -132 39 -151 6 -19 12 -51 16 -70 3 -19 7 -43 10 -52 3 -10 7 -30
10 -45 8 -52 14 -88 19 -113 3 -14 8 -52 11 -85 3 -33 8 -63 10 -66 14 -23 22
-569 10 -719 -7 -97 -9 -117 -20 -205 -13 -101 -17 -132 -31 -210 -8 -44 -17
-96 -20 -115 -3 -19 -8 -42 -10 -50 -2 -8 -7 -35 -10 -60 -4 -24 -8 -47 -10
-51 -2 -3 -7 -21 -10 -40 -21 -123 -124 -482 -165 -574 -4 -11 -34 -81 -65
-155 -98 -234 -280 -567 -430 -787 -35 -51 -62 -93 -60 -93 2 0 48 52 101 115
53 63 98 115 100 115 8 0 -137 -215 -220 -325 -203 -270 -464 -544 -726 -761
-166 -138 -362 -277 -565 -401 -235 -143 -590 -303 -885 -397 -226 -73 -573
-155 -724 -171 -175 -18 -697 -26 -886 -12 -117 8 -222 18 -260 23 -19 3 -53
7 -75 10 -37 4 -140 19 -207 30 -62 10 -228 44 -308 64 -47 11 -92 22 -100 24
-157 37 -462 145 -660 233 -185 83 -422 212 -550 299 -25 17 -67 43 -95 59
l-50 30 40 -50 c140 -175 356 -333 657 -482 48 -24 93 -43 101 -43 7 0 17 -4
22 -9 14 -13 382 -137 665 -224 274 -85 397 -117 556 -147 164 -30 165 -31
219 -36 28 -2 60 -7 71 -9 76 -17 394 -23 559 -11 94 6 125 9 200 21 17 3 48
7 70 11 22 3 90 17 150 30 61 14 121 28 135 30 14 3 94 23 179 45 964 249
1762 729 2331 1399 30 36 58 67 61 70 31 25 369 505 369 523 0 3 17 34 38 68
33 55 197 383 245 489 8 19 27 61 41 92 14 31 26 59 26 62 0 3 11 29 24 58 36
81 45 105 88 223 36 101 94 285 103 328 2 9 6 20 8 25 3 4 8 25 11 47 4 22 11
58 17 80 18 67 21 89 34 260 3 39 7 86 10 105 2 19 7 75 10 124 4 50 9 99 11
109 18 96 26 630 11 805 -13 159 -18 206 -23 214 -3 4 -1 8 4 8 5 0 13 -28 17
-62 4 -35 9 -73 10 -86 5 -36 18 -144 21 -177 1 -16 5 -48 8 -70 3 -22 8 -74
11 -115 3 -41 8 -100 10 -130 27 -322 26 -476 -4 -660 -19 -120 -22 -135 -42
-215 -11 -44 -22 -91 -25 -105 -37 -184 -269 -873 -379 -1125 -37 -85 -74
-179 -71 -182 5 -5 119 210 161 302 20 44 45 98 55 120 26 57 139 347 193 495
42 114 108 355 123 445 3 21 8 47 10 59 9 42 63 362 68 401 9 69 17 129 21
155 11 71 17 118 29 225 11 91 20 191 18 198 -1 4 2 7 8 7 9 0 13 -39 13 -112
0 -10 3 -18 6 -18 7 0 7 29 -3 410 -8 273 -16 447 -31 600 -13 136 -17 178
-21 205 -3 17 -7 45 -10 64 -2 19 -11 61 -18 95 -8 34 -26 119 -41 190 -86
427 -239 826 -451 1179 -29 48 -50 87 -48 87 10 0 213 -328 294 -475 18 -33
66 -125 108 -205 72 -140 104 -193 84 -140 -6 14 -29 75 -51 135 -23 61 -45
119 -50 130 -45 106 -33 99 23 -12 116 -232 323 -746 366 -908 5 -16 20 -70
35 -120 15 -49 29 -97 31 -105 42 -181 73 -327 78 -372 4 -30 8 -64 10 -74 2
-11 7 -53 11 -94 4 -41 8 -82 10 -90 2 -9 6 -58 10 -110 3 -52 9 -111 11 -130
3 -19 6 -190 8 -380 4 -357 -6 -523 -39 -660 -9 -36 -18 -76 -21 -90 -2 -14
-11 -56 -20 -95 -9 -42 -11 -71 -6 -73 12 -4 3 -44 -12 -54 -8 -6 -8 -8 0 -8
13 0 14 7 -42 -220 -19 -80 -37 -152 -39 -160 -6 -28 -113 -345 -134 -400 -30
-74 -176 -363 -269 -530 -166 -299 -417 -673 -592 -883 -219 -263 -462 -514
-669 -687 -29 -25 -63 -53 -75 -63 -11 -11 -73 -58 -136 -105 -63 -48 -117
-90 -120 -93 -9 -9 -267 -178 -327 -214 -56 -32 -231 -128 -358 -195 l-60 -31
45 6 c84 13 104 17 190 41 230 66 531 217 736 368 23 17 55 40 70 51 180 128
384 308 664 585 87 85 195 191 241 236 46 45 107 107 134 139 28 32 57 66 65
75 57 60 218 288 294 413 190 314 387 771 490 1137 8 30 25 89 37 130 11 41
23 86 25 100 3 14 9 39 14 55 7 25 34 148 54 255 3 14 7 34 9 45 6 28 19 108
32 205 3 25 8 56 10 70 35 241 49 676 31 985 -4 72 -9 141 -11 155 -2 14 -6
50 -10 81 -3 31 -8 67 -10 80 -3 13 -7 42 -10 64 -3 22 -7 51 -10 65 -2 14 -7
41 -10 60 -5 31 -17 105 -29 172 -2 13 -7 34 -10 48 -3 14 -8 36 -10 50 -3 14
-10 48 -16 75 -5 28 -13 61 -16 75 -29 134 -112 425 -158 552 -101 278 -178
424 -400 757 -283 423 -484 700 -656 900 -233 272 -390 416 -715 652 -98 72
-374 259 -382 259 -2 0 -23 13 -46 29 -121 83 -457 264 -659 356 -59 27 -106
50 -104 52 5 5 375 -153 545 -233 51 -24 95 -44 97 -44 2 0 91 -42 199 -94
181 -88 206 -103 352 -219 432 -341 643 -556 1038 -1055 5 -7 15 -18 20 -25 6
-7 84 -106 174 -222 193 -246 179 -230 187 -223 22 22 -283 473 -471 697 -11
13 -37 44 -59 70 -197 236 -335 380 -511 531 -54 47 -104 90 -110 97 -7 7 -50
44 -96 84 -46 39 -86 75 -89 78 -22 30 -491 407 -600 483 l-25 18 30 -12 c17
-7 49 -23 72 -35 53 -29 69 -30 23 -1 -71 43 -279 160 -430 242 -178 96 -509
261 -635 316 -66 28 -133 58 -150 65 -61 27 -433 164 -530 195 -180 57 -471
125 -620 145 -27 4 -61 9 -75 11 -14 2 -50 6 -80 9 -30 4 -71 8 -90 10 -71 8
-427 24 -433 19z m442 -478 c85 -5 162 -9 170 -11 9 -1 52 -6 96 -9 80 -7 96
-9 170 -20 22 -4 72 -9 110 -12 81 -5 176 -20 223 -33 18 -5 35 -10 37 -10 31
-1 182 -37 275 -65 145 -44 190 -59 187 -62 -2 -3 -33 4 -68 15 -35 10 -75 22
-89 25 -14 4 -48 13 -77 21 -28 8 -62 17 -75 20 -59 13 -125 27 -148 31 -14 2
-45 8 -70 14 -54 11 -107 19 -158 25 -20 3 -68 9 -107 15 -90 12 -152 19 -245
26 -41 3 -91 8 -110 10 -64 9 -654 12 -715 5 -58 -8 -74 -7 -63 4 2 3 69 8
149 11 79 4 145 7 146 8 4 3 224 -2 362 -8z m-679 -15 c-8 -5 -53 -12 -99 -15
-47 -4 -88 -9 -93 -12 -4 -3 -8 0 -8 5 0 6 10 11 23 11 26 1 141 12 144 14 1
1 12 2 25 3 17 1 19 0 8 -6z m-211 -25 c-8 -7 -109 -13 -109 -6 0 3 21 7 47 9
26 1 49 4 52 7 2 2 7 2 9 -1 3 -3 3 -7 1 -9z m-169 -16 c0 -5 -10 -10 -22 -9
-22 0 -22 1 -3 9 11 5 21 9 23 9 1 1 2 -3 2 -9z m50 6 c0 -2 -9 -6 -20 -9 -11
-3 -18 -1 -14 4 5 9 34 13 34 5z m-170 -26 c0 -5 -5 -10 -11 -10 -5 0 -7 5 -4
10 3 6 8 10 11 10 2 0 4 -4 4 -10z m40 6 c0 -2 -7 -7 -16 -10 -8 -3 -12 -2 -9
4 6 10 25 14 25 6z m-75 -15 c-9 -8 -36 -10 -30 -2 2 4 11 8 20 8 8 0 13 -3
10 -6z m-45 -5 c0 -2 -7 -7 -16 -10 -8 -3 -12 -2 -9 4 6 10 25 14 25 6z m-513
-132 c-3 -3 -12 -4 -19 -1 -8 3 -5 6 6 6 11 1 17 -2 13 -5z m3068 -4 c3 -5 1
-10 -4 -10 -6 0 -11 5 -11 10 0 6 2 10 4 10 3 0 8 -4 11 -10z m-3135 -14 c0
-2 -7 -7 -16 -10 -8 -3 -12 -2 -9 4 6 10 25 14 25 6z m3214 -15 c4 -5 -3 -7
-14 -4 -23 6 -26 13 -6 13 8 0 17 -4 20 -9z m-4014 -316 c0 -6 -56 -35 -67
-35 -4 1 8 9 27 20 39 22 40 22 40 15z m-90 -50 c-7 -8 -17 -15 -23 -15 -6 0
-2 7 9 15 25 19 30 19 14 0z m-40 -19 c0 -1 -53 -34 -117 -71 -219 -127 -611
-398 -727 -504 -16 -14 -26 -20 -22 -14 9 16 145 129 251 209 102 77 342 234
465 305 52 30 104 59 115 66 21 11 35 16 35 9z m3950 -56 c8 -5 11 -10 5 -10
-5 0 -17 5 -25 10 -8 5 -10 10 -5 10 6 0 17 -5 25 -10z m130 -40 c155 -56 264
-102 405 -173 135 -68 355 -194 355 -203 0 -2 -24 9 -52 26 -61 35 -372 191
-467 235 -36 16 -130 55 -210 87 -154 61 -174 79 -31 28z m-4960 -514 c0 -2
-7 -7 -16 -10 -8 -3 -12 -2 -9 4 6 10 25 14 25 6z m6601 -553 c13 -16 12 -17
-3 -4 -10 7 -18 15 -18 17 0 8 8 3 21 -13z m-188 -82 c-4 -6 -83 76 -83 86 0
4 20 -12 43 -37 24 -25 42 -47 40 -49z m252 19 c10 -11 16 -20 13 -20 -3 0
-13 9 -23 20 -10 11 -16 20 -13 20 3 0 13 -9 23 -20z m-180 -90 c33 -33 57
-60 54 -60 -2 0 -31 27 -64 60 -33 33 -57 60 -54 60 2 0 31 -27 64 -60z m256
13 c13 -16 12 -17 -3 -4 -10 7 -18 15 -18 17 0 8 8 3 21 -13z m84 -93 c10 -11
16 -20 13 -20 -3 0 -13 9 -23 20 -10 11 -16 20 -13 20 3 0 13 -9 23 -20z
m-235 -35 c13 -14 21 -25 18 -25 -2 0 -15 11 -28 25 -13 14 -21 25 -18 25 2 0
15 -11 28 -25z m271 -12 c13 -16 12 -17 -3 -4 -10 7 -18 15 -18 17 0 8 8 3 21
-13z m54 -63 c10 -11 16 -20 13 -20 -3 0 -13 9 -23 20 -10 11 -16 20 -13 20 3
0 13 -9 23 -20z m-235 -25 c13 -14 21 -25 18 -25 -2 0 -15 11 -28 25 -13 14
-21 25 -18 25 2 0 15 -11 28 -25z m275 -25 c10 -11 16 -20 13 -20 -3 0 -13 9
-23 20 -10 11 -16 20 -13 20 3 0 13 -9 23 -20z m55 -75 c14 -19 14 -19 -2 -6
-10 7 -18 18 -18 24 0 6 1 8 3 6 1 -2 9 -13 17 -24z m31 -42 c13 -16 12 -17
-3 -4 -10 7 -18 15 -18 17 0 8 8 3 21 -13z m34 -43 c10 -11 16 -20 13 -20 -3
0 -13 9 -23 20 -10 11 -16 20 -13 20 3 0 13 -9 23 -20z m294 -464 c-3 -3 -11
5 -18 17 -13 21 -12 21 5 5 10 -10 16 -20 13 -22z m41 -81 c0 -5 -5 -3 -10 5
-5 8 -10 20 -10 25 0 6 5 3 10 -5 5 -8 10 -19 10 -25z m40 -80 c0 -5 -5 -3
-10 5 -5 8 -10 20 -10 25 0 6 5 3 10 -5 5 -8 10 -19 10 -25z m124 -261 c3 -8
2 -12 -4 -9 -6 3 -10 10 -10 16 0 14 7 11 14 -7z m-8731 -101 c-13 -43 -38
-118 -55 -168 -16 -49 -40 -128 -53 -175 -26 -95 -33 -80 -9 20 23 100 127
400 138 400 2 0 -7 -35 -21 -77z m8751 51 c3 -8 2 -12 -4 -9 -6 3 -10 10 -10
16 0 14 7 11 14 -7z m49 -114 c3 -11 3 -20 1 -20 -2 0 -8 9 -14 20 -6 11 -7
20 -2 20 6 0 12 -9 15 -20z m45 -135 c-3 -3 -9 2 -12 12 -6 14 -5 15 5 6 7 -7
10 -15 7 -18z m199 -837 c-3 -7 -5 -2 -5 12 0 14 2 19 5 13 2 -7 2 -19 0 -25z
m18 -78 c3 -5 1 -10 -4 -10 -6 0 -11 5 -11 10 0 6 2 10 4 10 3 0 8 -4 11 -10z
m-10060 -172 c-11 -121 -13 -144 -20 -201 -5 -32 -12 -60 -18 -64 -6 -3 -8 -2
-5 3 3 5 9 56 13 114 4 58 8 107 10 111 2 3 5 26 6 52 2 26 6 47 11 47 4 0 6
-28 3 -62z m5 -188 c0 -5 -5 -10 -11 -10 -5 0 -7 5 -4 10 3 6 8 10 11 10 2 0
4 -4 4 -10z m563 -465 c4 -8 3 -16 -1 -19 -4 -3 -9 4 -9 15 -2 23 3 25 10 4z
m337 -725 c0 -5 -2 -10 -4 -10 -3 0 -8 5 -11 10 -3 6 -1 10 4 10 6 0 11 -4 11
-10z m-463 -1557 c-5 -4 -57 114 -56 125 0 4 14 -22 30 -57 16 -35 28 -66 26
-68z m958 -1308 c75 -86 178 -197 235 -253 l35 -35 -45 30 c-25 17 -79 68
-120 113 -41 45 -82 90 -91 99 -30 31 -144 166 -178 211 -28 37 -22 33 30 -20
35 -36 96 -102 134 -145z m2440 -1493 c-3 -3 -11 0 -18 7 -9 10 -8 11 6 5 10
-3 15 -9 12 -12z"/>
<path d="M9330 11360 c8 -5 20 -10 25 -10 6 0 3 5 -5 10 -8 5 -19 10 -25 10
-5 0 -3 -5 5 -10z"/>
<path d="M9370 11340 c0 -5 5 -10 11 -10 5 0 7 5 4 10 -3 6 -8 10 -11 10 -2 0
-4 -4 -4 -10z"/>
<path d="M9405 11320 c3 -5 8 -10 11 -10 2 0 4 5 4 10 0 6 -5 10 -11 10 -5 0
-7 -4 -4 -10z"/>
<path d="M9459 11290 c25 -16 37 -18 45 -10 8 8 6 9 -8 4 -12 -5 -17 -4 -13 3
3 5 1 10 -6 10 -7 0 -21 4 -32 8 -11 4 -5 -3 14 -15z"/>
<path d="M9515 11269 c-7 -10 21 -38 40 -39 5 0 -1 7 -13 16 -12 8 -20 20 -17
25 4 5 4 9 1 9 -3 0 -8 -5 -11 -11z"/>
<path d="M9630 11186 c0 -2 7 -7 16 -10 8 -3 12 -2 9 4 -6 10 -25 14 -25 6z"/>
<path d="M9780 11097 c0 -3 17 -17 37 -33 20 -15 33 -23 29 -16 -8 13 -66 56
-66 49z"/>
<path d="M9882 11024 c4 -5 28 -25 54 -44 26 -18 45 -29 42 -24 -4 5 -28 25
-54 44 -26 18 -45 29 -42 24z"/>
<path d="M10060 10896 c0 -2 14 -14 30 -26 17 -12 30 -19 30 -16 0 2 -13 14
-30 26 -16 12 -30 19 -30 16z"/>
<path d="M10175 10800 c3 -5 8 -10 11 -10 2 0 4 5 4 10 0 6 -5 10 -11 10 -5 0
-7 -4 -4 -10z"/>
<path d="M6159 10526 c-2 -2 -49 -7 -104 -11 -55 -3 -107 -8 -115 -10 -8 -2
-42 -6 -75 -10 -81 -8 -322 -51 -398 -70 -34 -8 -71 -17 -82 -19 -21 -5 -75
-19 -205 -56 -81 -23 -330 -111 -395 -140 -22 -10 -65 -28 -95 -41 -79 -32
-365 -180 -457 -235 -179 -108 -440 -291 -528 -371 -12 -10 -50 -43 -85 -73
-179 -152 -442 -425 -559 -580 -14 -19 -28 -37 -32 -40 -28 -25 -206 -287
-296 -436 -58 -95 -191 -349 -222 -425 -8 -19 -30 -70 -49 -114 -117 -276
-223 -642 -267 -920 -23 -148 -23 -146 -30 -206 -3 -31 -7 -65 -9 -75 -25
-128 -25 -676 -1 -879 2 -22 7 -62 10 -90 45 -385 164 -819 327 -1195 261
-600 703 -1181 1209 -1591 57 -46 106 -87 109 -90 12 -13 220 -158 290 -201
41 -26 80 -52 87 -58 7 -5 14 -10 17 -10 2 0 39 -21 81 -46 172 -101 441 -227
645 -301 215 -79 489 -157 637 -182 32 -6 99 -18 148 -26 50 -9 109 -18 131
-20 23 -2 53 -6 67 -9 14 -2 65 -8 114 -11 48 -4 104 -9 123 -11 55 -5 458 -5
530 1 36 3 88 7 115 10 28 3 77 7 111 10 33 3 71 8 84 10 12 2 48 7 79 11 31
3 58 8 61 9 3 2 26 6 50 10 25 4 72 13 105 20 33 8 71 16 85 18 49 9 158 39
305 84 441 133 870 347 1250 622 50 36 95 70 101 76 6 5 26 21 44 35 177 131
442 391 650 636 130 153 320 428 429 624 38 68 174 338 176 350 1 3 9 23 19
45 158 357 270 769 321 1180 4 28 8 60 10 73 25 154 25 661 1 882 -3 25 -8 72
-12 105 -3 33 -8 63 -10 66 -2 3 -5 28 -8 55 -3 27 -8 60 -11 74 -3 14 -7 39
-10 55 -38 221 -122 520 -212 750 -76 196 -209 476 -278 585 -14 22 -25 42
-25 44 0 6 -130 209 -187 292 -178 261 -485 598 -728 799 -33 28 -66 56 -74
64 -8 7 -49 39 -90 70 -42 31 -82 62 -90 69 -25 24 -292 197 -391 254 -303
173 -684 332 -1000 418 -193 52 -487 108 -660 125 -36 3 -83 9 -105 11 -48 7
-621 15 -626 10z m-821 -429 c-9 -7 -26 -19 -38 -27 -341 -236 -619 -589 -763
-970 -35 -92 -90 -288 -101 -360 -3 -19 -8 -48 -11 -63 -20 -102 -26 -384 -11
-525 22 -212 100 -482 197 -679 49 -99 185 -323 208 -343 3 -3 39 -44 80 -93
312 -371 784 -634 1276 -712 83 -14 70 -13 435 -30 58 -3 116 -7 130 -10 14
-2 39 -6 55 -9 32 -5 62 -12 110 -23 17 -4 32 -7 35 -8 3 -1 16 -4 30 -8 14
-4 43 -13 65 -19 223 -61 528 -224 725 -387 92 -75 271 -261 335 -346 33 -44
63 -81 68 -83 4 -2 7 -9 7 -16 0 -7 8 -21 18 -32 17 -20 21 -27 74 -119 97
-172 190 -415 224 -590 2 -11 6 -31 9 -45 10 -45 13 -64 19 -121 4 -31 9 -67
12 -80 6 -29 5 -326 -1 -389 -10 -100 -16 -141 -34 -231 -59 -285 -160 -527
-320 -764 -144 -214 -351 -422 -555 -560 -73 -49 -94 -58 -221 -89 -177 -44
-352 -76 -495 -91 -30 -3 -65 -8 -77 -10 -108 -23 -601 -23 -808 -1 -95 11
-142 16 -160 20 -11 2 -42 7 -70 10 -39 6 -206 38 -305 61 -157 35 -367 102
-561 181 -838 337 -1542 954 -1992 1744 -128 226 -259 528 -332 770 -1 3 -5
12 -8 20 -10 23 -96 362 -101 396 -2 16 -11 72 -19 124 -9 52 -19 115 -22 140
-3 25 -8 56 -10 70 -26 174 -26 764 0 900 2 8 6 38 9 65 8 59 13 90 27 170 6
33 12 69 14 80 10 70 66 293 104 416 158 510 408 968 765 1399 88 106 327 350
419 427 38 32 77 65 86 74 9 9 68 55 131 103 63 47 120 89 125 94 13 10 167
110 231 150 213 133 532 279 829 378 166 55 191 62 163 41z m1272 -1042 c30
-4 55 -7 55 -5 0 2 104 -38 135 -53 86 -41 211 -149 258 -222 38 -60 81 -149
86 -181 3 -16 10 -45 16 -63 5 -19 8 -87 7 -150 -3 -95 -8 -130 -31 -195 -69
-203 -245 -367 -453 -424 -101 -28 -281 -25 -373 6 -223 76 -387 249 -445 472
-22 84 -23 234 -1 318 67 262 284 460 546 497 25 4 46 8 47 9 5 5 97 -1 153
-9z"/>
<path d="M6355 4594 c-311 -72 -523 -335 -523 -647 0 -309 203 -568 507 -645
79 -21 238 -21 311 -2 147 39 290 134 375 250 37 50 94 159 100 190 2 11 7 24
10 30 17 28 25 212 12 295 -25 157 -145 339 -286 432 -57 38 -173 87 -232 99
-59 11 -222 10 -274 -2z"/>
<path d="M1210 4436 c0 -8 4 -17 9 -20 5 -4 7 3 4 14 -6 23 -13 26 -13 6z"/>
<path d="M2670 3503 c0 -5 10 -18 23 -29 l22 -19 -20 25 c-11 14 -21 27 -22
29 -2 2 -3 0 -3 -6z"/>
<path d="M4818 193 c7 -3 16 -2 19 1 4 3 -2 6 -13 5 -11 0 -14 -3 -6 -6z"/>
</g>
</svg>
