<?xml version="1.0" encoding="UTF-8"?>
<svg viewBox="0 0 649.61542 642.37415" xmlns="http://www.w3.org/2000/svg">
 <g transform="translate(-36.063 -34.172)">
  <path transform="matrix(.85029 0 0 .85029 414.88 57.037)" d="m194.29 352.36c0 142.02-115.13 257.14-257.14 257.14s-257.14-115.13-257.14-257.14 115.13-257.14 257.14-257.14 257.14 115.13 257.14 257.14z" fill="none" stroke="#000" stroke-width="6.2332"/>
  <a>
   <path d="m361.61 137.98c183.73 38.491 107.98 231.99-0.59412 218.07-139.27 12.554-148.18 172.21-17.686 218.47" fill="none" stroke="#000" stroke-width=".6"/>
  </a>
  <path transform="matrix(.94025 0 0 .94025 14.831 20.632)" d="m394.73 472.98c0 14.678-11.899 26.577-26.577 26.577s-26.577-11.899-26.577-26.577 11.899-26.577 26.577-26.577 26.577 11.899 26.577 26.577z" fill="none" stroke="#000" stroke-width="1.5953"/>
  <path transform="matrix(.94025 0 0 .94025 16.68 -193.37)" d="m394.73 472.98c0 14.678-11.899 26.577-26.577 26.577s-26.577-11.899-26.577-26.577 11.899-26.577 26.577-26.577 26.577 11.899 26.577 26.577z" fill="none" stroke="#000" stroke-width="1.5953"/>
  <path d="m267.58 39.191 176.03 0.92951" fill="none" stroke="#000" stroke-width="10.039"/>
  <path d="m268.18 68.947 174.5 0.92951" fill="none" stroke="#000" stroke-width="9.9949"/>
  <path d="m268.02 99.016 174.5 0.92951" fill="none" stroke="#000" stroke-width="9.9949"/>
  <path d="m533.46 77.825 124.05 122.73" fill="none" stroke="#000" stroke-width="9.9949"/>
  <path d="m513.3 100.6 123.84 122.94" fill="none" stroke="#000" stroke-width="9.9949"/>
  <path d="m650.28 264.07 1.5486 174.5" fill="none" stroke="#000" stroke-width="9.9949"/>
  <path d="m100.54 262.42 1.5486 174.5" fill="none" stroke="#000" stroke-width="9.9949"/>
  <path d="m41.06 264.07 1.5486 174.5" fill="none" stroke="#000" stroke-width="9.9949"/>
  <path d="m680.79 375.39 0.21573 63.182" fill="none" stroke="#000" stroke-width="8.9188"/>
  <path d="m681 264.04 0.21573 63.182" fill="none" stroke="#000" stroke-width="8.9188"/>
  <path d="m622.18 264.04 0.21573 63.182" fill="none" stroke="#000" stroke-width="8.9188"/>
  <path d="m621.86 375.39 0.21573 63.182" fill="none" stroke="#000" stroke-width="8.9188"/>
  <path d="m72.122 375.28 0.21573 63.182" fill="none" stroke="#000" stroke-width="8.9188"/>
  <path d="m72.635 264.04 0.21573 63.182" fill="none" stroke="#000" stroke-width="8.9188"/>
  <path d="m116.65 478.29 123.6 123.19" fill="none" stroke="#000" stroke-width="9.9949"/>
  <path d="m114.46 239.74 121.46-125.3" fill="none" stroke="#000" stroke-width="10.095"/>
  <path d="m89.618 219.25 126.07-125.95" fill="none" stroke="#000" stroke-width="10.309"/>
  <path d="m516.09 638.66 122.96-123.83" fill="none" stroke="#000" stroke-width="9.9949"/>
  <path d="m144.7 119.95 47.57-46.504" fill="none" stroke="#000" stroke-width="10.011"/>
  <path d="m68.24 198.18 47.57-46.504" fill="none" stroke="#000" stroke-width="10.011"/>
  <path d="m570.72 543.86 47.57-46.504" fill="none" stroke="#000" stroke-width="10.011"/>
  <path d="m551.44 522.61 47.57-46.504" fill="none" stroke="#000" stroke-width="10.011"/>
  <path d="m474.79 598.79 47.57-46.504" fill="none" stroke="#000" stroke-width="10.011"/>
  <path d="m494.82 620.83 47.57-46.504" fill="none" stroke="#000" stroke-width="10.011"/>
  <path d="m98.777 500.62 47.57 46.504" fill="none" stroke="#000" stroke-width="10.011"/>
  <path d="m79.167 519.58 47.57 46.504" fill="none" stroke="#000" stroke-width="10.011"/>
  <path d="m174.38 577.04 47.942 46.12" fill="none" stroke="#000" stroke-width="10.011"/>
  <path d="m157.03 596.32 47.57 46.504" fill="none" stroke="#000" stroke-width="10.011"/>
  <path d="m490.87 121.42 47.57 46.504" fill="none" stroke="#000" stroke-width="10.011"/>
  <path d="m569.2 198.16 47.04 47.04" fill="none" stroke="#000" stroke-width="10.011"/>
  <path d="m267.66 611.6 67.541-0.23507" fill="none" stroke="#000" stroke-width="10.011"/>
  <path d="m371.92 611.28 67.541-0.23507" fill="none" stroke="#000" stroke-width="10.011"/>
  <path d="m268.1 642.04 67.541-0.23507" fill="none" stroke="#000" stroke-width="10.011"/>
  <path d="m375.13 642.04 67.541-0.23507" fill="none" stroke="#000" stroke-width="10.011"/>
  <path d="m268.16 670.04 67.541-0.23507" fill="none" stroke="#000" stroke-width="10.011"/>
  <path d="m375.13 671.54 67.541-0.23507" fill="none" stroke="#000" stroke-width="10.011"/>
  <path d="m358.87 274.88c-12.618-2.1969-21.779-14.988-19.513-27.245 2.7249-14.74 16.867-23.233 31.333-18.816 6.1818 1.8876 12.561 8.5052 14.898 15.455 1.8917 5.6258 1.0032 13.382-2.1737 18.975-4.7525 8.367-15.108 13.275-24.544 11.632z" stroke="#000" stroke-width="5.6158"/>
  <path d="m327.94 565.66c-18.617-8.9302-40.299-20.121-51.218-34.274-57.02-73.909-8.9061-172.38 89.364-173.82 25.323-0.37289 30.646-2.3863 45.847-9.5791 37.778-17.875 65.014-70.787 58.518-113.68-3.1252-20.636-1.0763-23.635-15.8-43.321-14.53-19.427-26.322-28.046-48.478-39.36l-30.905-11.492 25.597 4.5485c43.744 6.1669 97.487 38.543 128.67 77.513 84.502 105.61 51.778 262.24-67.858 324.79-31.993 16.726-55.533 22.969-91.1 24.163-28.477 0.95579-29.49 0.82571-42.633-5.4789zm50.544-80.883c17.972-17.972 7.1305-45.164-18.008-45.164-9.0508 0-11.985 1.1104-17.496 6.6215-11.373 11.373-11.363 27.003 0.0248 38.39 5.5406 5.5406 8.3928 6.5967 17.816 6.5967 9.3628 0 12.286-1.0663 17.663-6.444h4e-5z" stroke="#000" stroke-width="2.7"/>
  <path d="m306.07 564.34c-17.317-4.8094-28.29-9.1562-44.027-17.441-40.126-21.124-72.975-54.615-93.115-94.935-31.548-63.159-29.399-139.91 5.629-201.01 38.533-67.216 108.5-108.68 183.58-108.8 15.981-0.0259 17.879 0.33157 33.271 6.2677 28.643 11.046 49.621 26.796 64.376 48.332 7.946 11.598 9.9326 17.683 12.047 36.903 3.1048 28.215-2.7584 51.454-19.789 78.434-5.756 9.1186-20.183 23.538-29.326 29.311-15.25 9.629-24.473 12.18-49.186 13.605-27.132 1.5643-43.294 5.2819-61.086 14.051-24.897 12.271-44.805 33.804-53.118 57.453-4.4507 12.662-6.085 39.696-3.2722 54.128 6.1445 31.526 19.95 61.811 58.968 79.732 41.255 18.949 31.218 13.881-4.9575 3.9742zm68.914-288.77c13.467-6.5757 18.712-22.922 11.711-36.503-5.1698-10.03-12.181-14.293-23.507-14.293-10.45 0-17.421 3.7762-23.504 12.731-3.1483 4.6346-3.6525 7.0466-3.1568 15.103 0.71987 11.7 5.2311 18.832 14.604 23.089 8.4271 3.8271 15.835 3.7878 23.852-0.12651z" fill="none" stroke="#000" stroke-width="4.2839"/>
 </g>
</svg>
