<?xml version="1.0" encoding="UTF-8" standalone="no"?>
<svg
   version="1.0"
   width="728.000000pt"
   height="596.000000pt"
   viewBox="0 0 728.000000 596.000000"
   preserveAspectRatio="xMidYMid meet"
   id="svg18"
   sodipodi:docname="yy2.svg"
   inkscape:version="1.1 (c4e8f9e, 2021-05-24)"
   xmlns:inkscape="http://www.inkscape.org/namespaces/inkscape"
   xmlns:sodipodi="http://sodipodi.sourceforge.net/DTD/sodipodi-0.dtd"
   xmlns="http://www.w3.org/2000/svg"
   xmlns:svg="http://www.w3.org/2000/svg">
  <defs
     id="defs22" />
  <sodipodi:namedview
     id="namedview20"
     pagecolor="none"
     bordercolor="#ffffff"
     borderopacity="1.0"
     inkscape:pageshadow="2"
     inkscape:pageopacity="0.0"
     inkscape:pagecheckerboard="0"
     inkscape:document-units="pt"
     showgrid="false"
     inkscape:zoom="1.0029362"
     inkscape:cx="485.0757"
     inkscape:cy="396.8348"
     inkscape:window-width="1920"
     inkscape:window-height="1080"
     inkscape:window-x="0"
     inkscape:window-y="0"
     inkscape:window-maximized="0"
     inkscape:current-layer="svg18" />
  <g
     transform="translate(0.000000,596.000000) scale(0.100000,-0.100000)"
     fill="#ffffff"
     stroke="none"
     id="g16">
    <path
       d="M3405 5884 c-16 -2 -73 -9 -125 -15 -545 -60 -1038 -270 -1490 -633 -110 -88 -334 -316 -427 -432 -312 -395 -518 -863 -595 -1359 -26 -167 -36 -579 -18 -752 56 -553 263 -1067 605 -1499 101 -128 362 -389 492 -492 200 -158 458 -312 674 -403 109 -46 329 -117 448 -145 200 -48 491 -86 626 -83 28 1 -15 7 -95 15 -476 42 -776 133 -1146 347 -461 266 -780 593 -979 1002 -76 155 -122 273 -169 432 -156 526 -200 1007 -130 1416 108 636 556 1284 1137 1645 275 172 646 300 990 342 159 20 475 8 617 -23 465 -103 880 -378 1138 -754 155 -228 263 -497 318 -798 22 -117 30 -395 14 -507 -54 -400 -336 -730 -715 -839 -73 -21 -291 -18 -375 5 -244 66 -433 255 -499 497 -12 41 -27 126 -35 189 -25 198 -52 281 -131 400 -212 318 -584 406 -951 225 -273 -134 -465 -364 -539 -644 -37 -141 -51 -355 -36 -529 36 -419 183 -774 454 -1099 261 -313 609 -528 993 -612 297 -65 661 -53 990 34 230 61 499 179 692 305 575 373 986 999 1087 1655 91 596 -101 1466 -440 1990 -228 353 -593 657 -1060 885 -262 127 -389 167 -665 211 -105 17 -190 22 -380 24 -135 2 -258 1 -275 -1z m-468 -2714 c88 -53 96 -176 15 -235 -40 -29 -137 -32 -180 -5 -42 26 -66 81 -59 138 11 99 136 156 224 102z"
       id="path2" />
    <path
       d="M4379 3039 c-65 -38 -86 -108 -55 -184 23 -54 68 -77 143 -73 55 4 67 8 98 38 122 118 -36 305 -186 219z"
       id="path4" />
    <path
       d="M6553 3010 c0 -25 2 -35 4 -22 2 12 2 32 0 45 -2 12 -4 2 -4 -23z"
       id="path6" />
    <path
       d="M6552 2935 c0 -16 2 -22 5 -12 2 9 2 23 0 30 -3 6 -5 -1 -5 -18z"
       id="path8" />
    <path
       d="M3908 83 c7 -3 16 -2 19 1 4 3 -2 6 -13 5 -11 0 -14 -3 -6 -6z"
       id="path10" />
    <path
       d="M3663 73 c9 -2 25 -2 35 0 9 3 1 5 -18 5 -19 0 -27 -2 -17 -5z"
       id="path12" />
    <path
       d="M3768 73 c6 -2 18 -2 25 0 6 3 1 5 -13 5 -14 0 -19 -2 -12 -5z"
       id="path14" />
  </g>
</svg>
